<?xml version="1.0" encoding="UTF-8" standalone="no"?>
<!-- Created with Inkscape (http://www.inkscape.org/) -->

<svg
   xmlns:dc="http://purl.org/dc/elements/1.1/"
   xmlns:cc="http://creativecommons.org/ns#"
   xmlns:rdf="http://www.w3.org/1999/02/22-rdf-syntax-ns#"
   xmlns:svg="http://www.w3.org/2000/svg"
   xmlns="http://www.w3.org/2000/svg"
   xmlns:sodipodi="http://sodipodi.sourceforge.net/DTD/sodipodi-0.dtd"
   xmlns:inkscape="http://www.inkscape.org/namespaces/inkscape"
   width="210mm"
   height="297mm"
   viewBox="0 0 210 297"
   version="1.1"
   id="svg8"
   inkscape:version="0.92.2 (5c3e80d, 2017-08-06)"
   sodipodi:docname="Eggplant.svg">
  <defs
     id="defs2" />
  <sodipodi:namedview
     id="base"
     pagecolor="#ffffff"
     bordercolor="#666666"
     borderopacity="1.0"
     inkscape:pageopacity="0.0"
     inkscape:pageshadow="2"
     inkscape:zoom="0.7"
     inkscape:cx="39.99698"
     inkscape:cy="568.8893"
     inkscape:document-units="mm"
     inkscape:current-layer="layer1"
     showgrid="false"
     inkscape:window-width="1920"
     inkscape:window-height="1028"
     inkscape:window-x="-8"
     inkscape:window-y="-8"
     inkscape:window-maximized="1" />
  <metadata
     id="metadata5">
    <rdf:RDF>
      <cc:Work
         rdf:about="">
        <dc:format>image/svg+xml</dc:format>
        <dc:type
           rdf:resource="http://purl.org/dc/dcmitype/StillImage" />
        <dc:title></dc:title>
      </cc:Work>
    </rdf:RDF>
  </metadata>
  <g
     inkscape:label="Layer 1"
     inkscape:groupmode="layer"
     id="layer1">
    <path
       style="fill:#1c0042;stroke:#000000;stroke-width:1.965;stroke-linecap:butt;stroke-linejoin:miter;stroke-opacity:1;stroke-miterlimit:4;stroke-dasharray:none;fill-opacity:1"
       d="m 95.627978,100.45238 c -6.803571,14.36309 -5.777454,8.80875 -15.119051,20.78869 -9.341597,11.97993 -19.597255,16.86433 -29.482142,39.6875 -9.884888,22.82317 -3.467248,49.77192 13.229168,61.23214 16.696416,11.46023 43.900277,8.5076 61.610117,-10.96131 17.70984,-19.46891 27.1649,-42.15835 33.2619,-65.38988 6.09701,-23.23152 8.68648,-46.344666 3.77976,-60.098213 -4.90671,-13.753547 -7.11718,-23.948928 -22.3006,-27.59226 -15.18341,-3.643332 -31.18338,1.997728 -35.52975,14.363096 -4.34637,12.365367 -2.64583,13.607143 -9.449402,27.970237 z"
       id="path4504"
       inkscape:connector-curvature="0"
       sodipodi:nodetypes="zzzzzzzzzz" />
    <path
       style="fill:#52993a;stroke:#000000;stroke-width:1.065;stroke-linecap:butt;stroke-linejoin:miter;stroke-opacity:1;stroke-miterlimit:4;stroke-dasharray:none;fill-opacity:1"
       d="m 119.21907,54.16176 c 1.3413,-2.10267 -2.0256,-8.905214 -0.53455,-10.405809 1.49105,-1.500595 7.6419,-1.752374 8.88997,-0.469689 1.24807,1.282685 1.23144,6.867255 3.57735,9.919095 2.34591,3.05184 15.02896,-1.45027 24.30315,10.713033 9.27419,12.163302 11.46909,16.550587 12.74442,28.59649 1.27532,12.0459 5.82877,17.10772 5.29166,18.52083 -0.53711,1.41311 -1.66468,1.38169 -3.90882,0.53454 -2.24413,-0.84715 -12.68293,-24.9608 -15.36797,-25.102989 0,0 -1.80989,-1.625347 -5.66964,0.755952 -3.85975,2.381299 -5.57423,13.630217 -9.82345,17.631247 -3.37158,3.17464 -13.22052,3.47804 -17.23034,-0.80181 -4.00982,-4.279853 -4.62724,-7.252676 -4.07783,-13.511497 0.54942,-6.258821 1.11148,-6.756092 -1.54989,-7.701026 -2.66138,-0.944934 -4.40042,0.399433 -11.5417,5.139037 -7.141283,4.739604 -6.944127,1.717819 -6.047622,-6.047618 0.896505,-7.765437 3.225422,-11.93461 7.628302,-17.892614 4.40288,-5.958004 11.97566,-7.774502 13.31696,-9.877172 z"
       id="path4506"
       inkscape:connector-curvature="0"
       sodipodi:nodetypes="zzzzzzzzszszzzzzzz" />
    <path
       style="fill:#c498ff;fill-opacity:1;stroke:#000000;stroke-width:0.26458332px;stroke-linecap:butt;stroke-linejoin:miter;stroke-opacity:1"
       d="m 78.710874,144.32228 c 5.089833,-6.15836 6.840054,-5.44012 15.635269,-17.84024 8.795217,-12.40013 9.473457,-20.48703 15.501627,-17.63979 6.02817,2.84723 -2.8243,14.43194 -6.42789,23.84627 -3.603602,9.41434 -4.342909,12.36234 -11.317037,20.56077 -6.974127,8.19843 -15.299462,15.62089 -19.672802,10.11595 -4.37334,-5.50494 1.191,-12.88459 6.280833,-19.04296 z"
       id="path4508"
       inkscape:connector-curvature="0"
       sodipodi:nodetypes="zzzzzzz" />
  </g>
</svg>
